<svg width="61" height="61" viewBox="0 0 61 61" fill="none" xmlns="http://www.w3.org/2000/svg">
<path fill-rule="evenodd" clip-rule="evenodd" d="M30.1411 0C13.5111 0 0.00107907 13.74 0.00107907 30.73C-0.0527347 37.152 1.90747 43.4293 5.60611 48.6795C9.30476 53.9297 14.5558 57.8888 20.6211 60C22.1411 60.28 22.6711 59.32 22.6711 58.51V53.23C14.2611 55.1 12.4911 49.09 12.4911 49.09C11.9419 47.2383 10.7552 45.6407 9.14108 44.58C6.43108 42.69 9.36108 42.69 9.36108 42.69C10.3254 42.8284 11.2451 43.1861 12.0495 43.7357C12.8539 44.2852 13.5216 45.012 14.0011 45.86C14.3961 46.6124 14.9382 47.2778 15.5951 47.8169C16.252 48.356 17.0104 48.7577 17.8255 48.9983C18.6405 49.2389 19.4955 49.3135 20.3399 49.2176C21.1842 49.1217 22.0008 48.8572 22.7411 48.44C22.8504 46.8939 23.5062 45.437 24.5911 44.33C17.9011 43.55 10.8711 40.91 10.8711 29.22C10.8424 26.1837 11.9601 23.2483 14.0011 21C13.0996 18.3424 13.2027 15.4467 14.2911 12.86C14.2911 12.86 16.7811 12 22.5211 16C27.4563 14.6191 32.6759 14.6191 37.6111 16C43.3611 12 45.8711 12.85 45.8711 12.85C46.9806 15.4069 47.1123 18.2824 46.2411 20.93C48.2737 23.1925 49.3773 26.1389 49.3311 29.18C49.3311 41 42.3311 43.59 35.5711 44.29C36.2947 45.0344 36.8524 45.9237 37.2075 46.8993C37.5626 47.8749 37.7069 48.9146 37.6311 49.95V58.39C37.6311 59.39 38.1611 60.17 39.7011 59.87C55.4211 54.3 63.7711 36.79 58.3511 20.73C56.3872 14.771 52.6149 9.5722 47.5589 5.85684C42.5029 2.14148 36.4147 0.0942737 30.1411 0V0Z" fill="black"/>
</svg>
