<svg width="60" height="60" viewBox="0 0 60 60" fill="none" xmlns="http://www.w3.org/2000/svg">
<g clip-path="url(#clip0_761_4)">
<path fill-rule="evenodd" clip-rule="evenodd" d="M46.84 44.14V32.42C46.84 26.15 43.49 23.23 39.02 23.23C37.7895 23.18 36.5688 23.4676 35.4901 24.0616C34.4113 24.6556 33.5157 25.5335 32.9 26.6V23.71H26.11C26.2 25.63 26.11 44.14 26.11 44.14H32.9V32.73C32.876 32.1673 32.9539 31.605 33.13 31.07C33.3836 30.3483 33.8541 29.7226 34.4771 29.2787C35.1001 28.8347 35.8451 28.5942 36.61 28.59C39.07 28.59 40.05 30.46 40.05 33.21V44.14H46.84ZM19 20.92C19.4652 20.9578 19.9333 20.9033 20.3773 20.7595C20.8213 20.6157 21.2325 20.3856 21.5872 20.0823C21.942 19.779 22.2332 19.4085 22.4442 18.9922C22.6553 18.576 22.7819 18.1221 22.8168 17.6567C22.8518 17.1912 22.7943 16.7235 22.6478 16.2804C22.5013 15.8373 22.2686 15.4275 21.9631 15.0746C21.6577 14.7218 21.2854 14.4328 20.8679 14.2244C20.4503 14.0159 19.9956 13.8921 19.53 13.86H19C18.5289 13.8039 18.0513 13.8431 17.5956 13.9753C17.1399 14.1075 16.7155 14.3299 16.3474 14.6293C15.9794 14.9288 15.6753 15.2991 15.4533 15.7184C15.2312 16.1377 15.0957 16.5974 15.0548 17.07C15.0139 17.5427 15.0685 18.0188 15.2152 18.47C15.3619 18.9212 15.5979 19.3383 15.909 19.6965C16.2201 20.0547 16.6001 20.3467 17.0263 20.5552C17.4525 20.7637 17.9163 20.8843 18.39 20.91C18.5664 20.925 18.7437 20.925 18.92 20.91L19 20.92ZM30 60C24.0666 60 18.2664 58.2405 13.3329 54.9441C8.39943 51.6477 4.55426 46.9623 2.28363 41.4805C0.0129988 35.9987 -0.581102 29.9667 0.576455 24.1473C1.73401 18.3279 4.59123 12.9824 8.78681 8.78681C12.9824 4.59123 18.3279 1.73401 24.1473 0.576455C29.9667 -0.581102 35.9987 0.0129988 41.4805 2.28363C46.9623 4.55426 51.6477 8.39943 54.9441 13.3329C58.2405 18.2664 60 24.0666 60 30C60 37.9565 56.8393 45.5871 51.2132 51.2132C45.5871 56.8393 37.9565 60 30 60ZM22.35 44.14V23.71H15.57V44.14H22.35Z" fill="white"/>
</g>
<defs>
<clipPath id="clip0_761_4">
<rect width="60" height="60" fill="white"/>
</clipPath>
</defs>
</svg>
