<svg xmlns="http://www.w3.org/2000/svg" viewBox="0 0 205 167.37"><g id="Layer_2" data-name="Layer 2"><g id="final_rounded" data-name="final rounded"><path d="M161.14,78.68,122.56,40.1a29.68,29.68,0,0,0,3.59-10.55L171,74.41a2.5,2.5,0,0,1-1.77,4.27Zm0,10-38.58,38.58a29.73,29.73,0,0,1,3.59,10.56L171,93a2.5,2.5,0,0,0-1.76-4.27Zm-43.44,36c-8.39-9.76-22-9.76-30.4,0s-8.4,25.59,0,35.35,22,9.77,30.4,0S126.1,134.45,117.7,124.69Zm0-117.37c-8.39-9.76-22-9.76-30.4,0s-8.4,25.59,0,35.36,22,9.76,30.4,0S126.1,17.09,117.7,7.32ZM205,83.68a2.5,2.5,0,0,0-2.5-2.5H2.5a2.5,2.5,0,0,0,0,5h200A2.5,2.5,0,0,0,205,83.68ZM34,93l44.86,44.87a29.73,29.73,0,0,1,3.59-10.56L43.86,88.68h-8.1A2.5,2.5,0,0,0,34,93Zm9.87-14.27L82.44,40.1a29.68,29.68,0,0,1-3.59-10.55L34,74.41a2.5,2.5,0,0,0,1.77,4.27Z"/></g></g></svg>