<svg width="151" height="151" viewBox="0 0 151 151" fill="none" xmlns="http://www.w3.org/2000/svg">
<mask id="mask0" mask-type="alpha" maskUnits="userSpaceOnUse" x="0" y="0" width="151" height="151">
<circle cx="75.5" cy="75.5" r="75.5" fill="#EAEFF4"/>
</mask>
<g mask="url(#mask0)">
<rect x="-31.1846" y="-54.1631" width="215.011" height="321.696" fill="#CCCCCC"/>
<path d="M20.9727 88.6493C19.8928 112.622 13.1437 114.728 13.0087 115.079C12.8737 115.106 7.47441 119.236 1.53516 113.783L3.50591 111.785C4.3698 112.649 5.66564 113.432 6.90748 113.783C9.66113 114.512 11.4699 113.135 11.6859 113.054C11.8209 112.946 13.2517 112.082 13.9536 110.922C17.4092 106.305 19.056 94.3456 19.5419 88.6223L20.9727 88.6493Z" fill="#355389"/>
<path d="M90.9748 71.1283C90.9748 71.1283 88.0592 82.5478 87.7082 91.8347C87.3842 101.122 80.9591 108.87 80.1222 132.087C79.2853 155.331 75.9647 176.658 75.9647 176.658C75.9647 176.658 50.1019 178.44 44.9996 172.986C39.8972 167.506 25.805 118.777 30.8263 94.5883C35.8477 70.3994 30.0434 62.8403 41.544 54.9033C53.0446 46.9933 68.0007 52.3386 74.3449 54.4984C80.6891 56.6581 91.1638 65.9989 90.9748 71.1283Z" fill="#184655"/>
<path d="M47.4831 90.4848C47.4831 90.4848 45.2154 108.87 47.5101 127.659C49.8048 146.449 46.1603 183.515 46.1603 183.515C46.1603 183.515 26.8847 196.932 21.2424 186.269C20.1896 184.271 17.6249 160.514 17.4089 150.606C17.1119 137.972 19.2717 87.5422 19.2717 87.5422C19.2717 87.5422 26.1288 79.2812 47.4831 90.4848Z" fill="#F7CC7F"/>
<path d="M41.895 67.619C35.3348 69.3737 34.228 94.6156 34.228 94.6156L13.4136 92.2399C13.4136 92.2399 17.2201 65.9182 28.2077 54.9305C39.1953 43.9429 67.0019 50.6651 77.5575 57.4952C88.1132 64.3524 83.5508 73.0723 83.5508 73.0723C83.5508 73.0723 48.4822 65.8642 41.895 67.619Z" fill="#13375B"/>
<path d="M51.479 115.862C66.6781 115.862 79.6095 100.852 80.3654 100.069L80.9323 95.9656C80.7433 96.1546 65.5982 112.137 51.587 112.137L51.479 115.862Z" fill="#13375B"/>
<path d="M47.3754 124.473L47.1595 121.342C40.4103 120.613 24.2933 105.711 18.3271 99.8794L18.2461 103.767C19.164 104.685 38.3046 123.501 47.3754 124.473Z" fill="#13375B"/>
<path d="M48.3744 148.42L48.3205 145.369C43.1101 147.637 24.3745 146.179 17.1934 145.369L17.2204 148.339C23.8345 149.068 42.2462 151.119 48.3744 148.42Z" fill="#13375B"/>
<path d="M38.3316 176.821H44.7838C47.1055 176.821 48.9953 174.931 48.9953 172.609V134.976C48.9953 132.654 47.1055 130.764 44.7838 130.764H38.3316C36.0099 130.764 34.1201 132.654 34.1201 134.976V172.636C34.1201 174.958 36.0099 176.821 38.3316 176.821Z" fill="#8AA493"/>
<path d="M48.9953 144.478H34.1201V147.582H48.9953V144.478Z" fill="#13375B"/>
<path d="M144.671 169.99C139.919 167.911 139.703 168.775 139.109 168.478C138.408 168.154 133.143 159.218 133.143 159.218C133.143 159.218 117.485 133.032 116.675 131.601L113.571 100.069L96.9678 97.6931C96.9678 97.6931 101.314 131.898 101.854 133.626C102.394 135.353 127.906 168.208 130.066 171.178C130.066 171.178 131.253 175.686 132.09 178.494C132.927 181.302 135.033 183.542 135.384 184.298C135.438 184.406 136.788 186.836 139.298 189.347C141.458 191.506 140.459 188.456 140.459 188.456C140.459 188.456 137.22 183.704 137.652 183.515C137.976 183.353 139.595 186.053 141.944 188.483C142.565 189.104 143.159 189.725 143.699 190.292C145.157 191.749 146.534 191.263 145.265 189.482C144.806 188.861 144.05 187.835 143.375 187.187C142.673 186.485 142.241 185.594 141.755 184.919C140.756 183.569 140 182.57 140.081 182.57C140.189 182.543 140.189 182.139 140.864 182.786C141.674 183.569 142.97 185.567 144.266 186.62C144.995 187.214 146.426 188.537 146.426 188.537C146.426 188.537 148.99 190.13 149.125 190.022C149.935 189.374 148.531 187.808 147.451 187.133C146.992 186.35 145.454 185 145.454 185C145.454 185 142.997 181.572 143.483 181.194C143.699 181.032 145.481 182.975 147.532 184.568C149.449 186.053 151.636 187.268 152.014 186.917C152.662 186.35 150.718 184.46 150.718 184.46C150.718 184.46 149.287 183.218 148.855 182.759C148.342 182.22 146.912 180.519 146.912 180.519C146.912 180.519 142.268 174.364 142.781 174.04C143.294 173.743 144.914 173.446 145.319 173.716C145.751 173.986 146.237 174.93 146.669 175.2C147.1 175.47 147.91 175.47 148.315 174.984C148.72 174.498 147.235 172.339 147.235 172.339C147.235 172.339 146.048 170.611 144.671 169.99Z" fill="#F8A492"/>
<path d="M98.3447 71.2092C111.195 74.2598 114.435 102.822 115.218 106.521C110.952 108.006 105.904 109.517 101.53 110.786L96.293 70.6152C96.293 70.6152 97.0219 70.8852 98.3447 71.2092Z" fill="#327C4C"/>
<path d="M81.6072 71.0202C81.6072 71.0202 73.7511 70.2913 70.6195 77.7153C67.4879 85.1394 64.3563 120.775 65.7602 137.891C67.191 155.007 62.7905 175.119 62.7905 175.119C90.1381 189.238 107.983 177.522 107.983 177.522C107.983 177.522 115.218 112.055 112.545 99.9606C106.984 74.6917 96.2933 70.6152 96.2933 70.6152L81.6072 71.0202Z" fill="#7BB18E"/>
<path d="M59.8743 188.941C56.9047 184.136 56.2567 184.811 55.8788 184.19C55.4468 183.461 55.9328 171.987 55.9328 171.987C55.9328 171.987 57.1206 138.214 57.2556 136.379L72.4277 105.198L59.3074 92.9412C59.3074 92.9412 43.7033 127.335 43.1904 129.279C42.6774 131.222 46.295 177.144 46.484 181.193C46.484 181.193 44.9722 186.079 44.1083 189.211C43.2444 192.316 43.8113 195.663 43.7033 196.581C43.6763 196.716 43.4873 199.794 44.2702 203.627C44.9182 206.948 45.7821 203.519 45.7821 203.519C45.7821 203.519 45.6471 197.148 46.133 197.229C46.511 197.283 46.376 200.766 47.0779 204.437C47.2669 205.382 47.4289 206.327 47.5908 207.164C48.0228 209.405 49.5076 209.782 49.3996 207.353C49.3726 206.489 49.2646 205.085 49.0756 204.059C48.8597 202.979 48.9947 201.899 48.9407 200.955C48.8327 199.092 48.7517 197.742 48.8327 197.769C48.9407 197.823 49.1566 197.445 49.3996 198.444C49.6696 199.632 49.6696 202.304 50.1825 204.059C50.4795 205.031 50.9654 207.137 50.9654 207.137C50.9654 207.137 52.2882 210.16 52.4772 210.16C53.5571 210.079 53.2331 207.731 52.6392 206.462C52.6932 205.463 52.0993 203.276 52.0993 203.276C52.0993 203.276 51.9103 198.579 52.5582 198.552C52.8282 198.552 53.2871 201.414 54.178 204.14C54.9879 206.678 56.2297 209.108 56.7427 209.027C57.6066 208.892 57.0126 205.976 57.0126 205.976C57.0126 205.976 56.4727 203.951 56.3377 203.276C56.1758 202.466 55.9058 200.037 55.9058 200.037C55.9058 200.037 55.3659 191.506 55.9598 191.533C56.5807 191.56 58.1465 192.262 58.3625 192.775C58.5785 193.288 58.4705 194.448 58.6864 194.961C58.9024 195.474 59.6043 195.987 60.2522 195.771C60.9002 195.555 60.7922 192.667 60.7922 192.667C60.7922 192.667 60.7112 190.318 59.8743 188.941Z" fill="#F8A492"/>
<path d="M52.8286 102.067L70.0255 115.349C70.0255 115.349 77.6115 108.141 81.418 100.15C85.2785 92.0778 80.5811 70.7775 76.4776 71.8843C67.2988 74.341 52.8286 102.067 52.8286 102.067Z" fill="#327C4C"/>
<path d="M90.0027 26.3947C90.0027 26.3947 84.1174 21.7243 80.8509 28.7704C80.8778 28.7164 78.6371 28.5544 78.3402 28.6354C77.0173 28.9594 75.6675 30.1742 74.4527 30.7952C70.1602 33.0089 67.8385 37.8413 67.2176 42.4037C66.4617 47.938 68.4594 52.2035 71.807 56.5229C72.8059 57.7918 73.8587 59.0606 75.2356 59.9245C76.8824 60.9774 78.3132 60.3834 79.906 60.8964C81.2558 61.3283 81.6068 62.7861 83.2536 62.4082C85.5753 61.8683 88.1939 59.3036 90.9746 59.9515C93.7282 60.5994 100.423 58.6557 100.45 58.6557C109.035 56.172 104.797 39.893 103.69 34.1427C102.691 28.7164 95.321 24.9369 90.0027 26.3947Z" fill="#9BC1F9"/>
<path d="M94.403 62.9757L96.0498 68.9419L96.9407 72.2895C96.9407 72.2895 100.099 76.285 98.2635 77.1759C90.4885 80.9284 83.5234 71.4796 83.5234 71.4796L82.0386 53.0139L94.403 62.9757Z" fill="#F7A491"/>
<path d="M82.5245 58.9523C85.7371 64.8916 91.8923 68.0232 96.0768 68.9951L94.403 62.9748L82.0386 52.9861L82.5245 58.9523Z" fill="#F47458"/>
<path d="M86.1693 34.467C91.3796 31.9023 97.6968 34.7099 99.2626 40.1362C99.9375 42.485 100.693 45.4816 101.206 48.7752C102.421 56.7122 99.2896 65.0001 95.6181 65.4861C91.9465 65.972 81.0939 62.1385 79.2041 50.9079C78.0163 43.9698 80.7159 37.1666 86.1693 34.467Z" fill="#F7A491"/>
<path d="M82.0114 51.4475C82.2543 53.2023 81.2554 54.7681 79.7976 54.9571C78.3398 55.1461 76.963 53.8772 76.72 52.1224C76.477 50.3677 77.4759 48.8019 78.9337 48.6129C80.4186 48.4239 81.7954 49.6927 82.0114 51.4475Z" fill="#F7A491"/>
<path d="M92.8913 55.6048C92.8913 55.6048 88.0049 56.7386 87.4649 58.4124C86.925 60.0862 87.303 62.6239 89.4627 64.7296C91.6224 66.8354 96.6978 66.0795 98.1556 65.1346C99.6134 64.1897 101.017 59.8433 99.8834 57.2516C98.7225 54.6599 92.8913 55.6048 92.8913 55.6048Z" fill="#9BC1F9"/>
<path d="M91.0285 59.0603C91.0285 59.0603 90.8935 60.977 91.5144 61.382C92.1084 61.7599 92.8913 62.1109 93.6202 62.2459C94.808 62.4618 95.9419 62.0569 96.6438 61.193C96.7248 61.112 96.7788 61.031 96.8328 60.923C97.3997 60.0052 97.6427 58.3314 97.6427 58.3314C97.6427 58.3314 95.6719 57.6835 94.5111 57.7914C93.2962 57.8724 91.0285 59.0603 91.0285 59.0603Z" fill="#F7A491"/>
<path d="M91.4065 106.872C91.7575 92.1586 90.8396 71.9112 76.7474 66.1609C71.726 64.0551 65.5708 66.4308 60.9004 68.1586C66.6236 67.3487 72.023 69.5625 74.8036 71.1283C86.4122 76.9595 86.3042 93.7244 85.8992 106.764C84.8464 139.565 59.6315 136.082 59.6315 136.082L59.0376 138.269C59.0376 138.269 68.5134 141.373 80.5809 135.434C90.2457 130.656 91.4065 106.872 91.4065 106.872Z" fill="#184655"/>
</g>
</svg>
