<svg width="151" height="151" viewBox="0 0 151 151" fill="none" xmlns="http://www.w3.org/2000/svg">
<mask id="mask0" mask-type="alpha" maskUnits="userSpaceOnUse" x="0" y="0" width="151" height="151">
<circle cx="75.5" cy="75.5" r="75.5" fill="#EAEFF4"/>
</mask>
<g mask="url(#mask0)">
<rect x="-32.8262" y="-54.1631" width="215.011" height="321.696" fill="#CCCCCC"/>
<path d="M45.7944 52.1413C47.9277 38.2285 60.511 28.2422 73.6509 34.9822C76.6189 36.4971 80.6073 39.5889 82.6478 42.1859C88.2748 49.3896 89.6351 58.3247 95.5712 65.2811C100.704 71.2482 114.4 70.1351 120.8 74.7418C127.2 79.3485 131.683 87.5725 131.683 97.4351C131.683 108.473 129.178 120.159 120.645 127.147C112.112 134.103 99.9615 135.865 89.3259 132.897C78.6904 129.929 69.5698 122.695 63.0153 113.852C56.4609 104.979 51.8233 95.2709 48.5461 84.7281C44.9597 72.9795 44.4341 61.1382 45.7944 52.1413Z" fill="#184655"/>
<path d="M46.4432 117.408C46.4432 117.408 33.0869 147.614 30.5517 154.447C28.0165 161.28 14.6911 184.066 14.1346 184.932C13.5781 185.797 1.48944 187.343 2.16962 188.92C2.8498 190.466 8.01297 188.518 8.01297 189.384C8.01297 191.301 0.469165 205.43 1.70586 205.77C3.99374 206.419 6.37436 197.051 7.39463 197.546C8.4149 198.04 2.60245 206.203 3.99372 207.625C5.41592 209.016 8.75499 199.37 9.68251 199.37C10.61 199.37 4.70482 208.892 6.71444 208.738C7.79655 208.645 12.0631 199.865 12.9597 200.761C13.3307 201.132 8.81683 208.212 10.0535 207.996C11.2902 207.779 14.8766 202.183 16.2988 199.03C17.721 195.876 17.0717 192.846 20.8746 188.518C24.6774 184.22 39.8578 170.586 44.3717 159.703C48.8856 148.82 58.9028 124.767 58.9028 124.767L46.4432 117.408Z" fill="#F48C7F"/>
<path d="M57.697 86.7075C57.697 86.7075 46.5977 91.9944 41.1253 124.983L59.923 130.239L67.7451 108.968L57.697 86.7075Z" fill="#F47458"/>
<path d="M75.32 82.7191C75.32 82.7191 87.9651 81.9152 92.9737 87.3567C97.9823 92.7981 81.8744 135.866 80.9469 142.791C80.0503 149.717 90.0057 173.492 90.0057 173.492C90.0057 173.492 53.5851 179.83 45.1138 174.203C45.1138 174.203 46.4741 118.676 47.3707 113.729C48.2673 108.782 55.873 88.6552 57.6971 86.6765C59.5212 84.7287 75.32 82.7191 75.32 82.7191Z" fill="#F7CC7F"/>
<path d="M71.0841 65.8687C71.0841 65.8687 71.1459 66.2397 71.2696 66.8581C71.8261 69.888 73.9903 79.967 75.4743 82.7187C77.2366 86.0577 69.4145 96.7242 61.8398 95.4257C59.5828 95.0237 63.7258 85.6249 63.5403 84.6355C63.1693 82.7187 62.6436 80.1216 62.1181 77.4627C61.8089 75.9478 61.5306 74.4328 61.2215 72.9797C60.4176 68.8986 59.7683 65.5596 59.7683 65.5596L71.0841 65.8687Z" fill="#F7A491"/>
<path d="M71.2694 66.8584C71.1458 66.2401 71.0839 65.8691 71.0839 65.8691L59.7682 65.5908C59.7682 65.5908 60.4175 68.9299 61.2213 73.011C61.4996 74.4332 61.8087 75.9481 62.087 77.4631C63.8184 77.2157 65.6734 76.35 67.4975 74.7733C69.5072 73.0419 70.8057 70.9395 71.5786 68.7135C71.4859 67.9405 71.3622 67.3531 71.2694 66.8584Z" fill="#F47458"/>
<path d="M63.4778 40.2078C63.4778 40.2078 68.7956 39.5894 72.1656 43.9179C75.5046 48.2463 79.122 61.5716 70.8052 68.8372C62.4885 76.1028 54.2954 67.8788 53.0896 59.1601C51.8529 50.4414 51.3891 39.8986 63.4778 40.2078Z" fill="#F7A491"/>
<path d="M50.6171 59.0044C51.6064 60.9213 53.276 62.0034 54.3271 61.385C55.3783 60.7667 55.4402 58.7261 54.4508 56.8093C53.4615 54.8924 51.7919 53.8103 50.7407 54.4286C49.6896 55.047 49.6277 57.0875 50.6171 59.0044Z" fill="#F7A491"/>
<path d="M62.8914 38.7851C62.8914 38.7851 70.0024 51.4612 75.1037 52.0486C80.2051 52.6361 80.8853 59.376 80.8853 59.376C80.8853 59.376 79.0611 43.8556 74.0216 40.8566C68.9512 37.8576 62.8914 38.7851 62.8914 38.7851Z" fill="#184655"/>
<path d="M73.7741 55.2331C73.3722 57.49 74.207 59.5615 75.6292 59.8397C77.0823 60.1489 78.5663 58.5412 78.9991 56.2842C79.4011 54.0273 78.5663 51.9558 77.1441 51.6776C75.691 51.3993 74.176 52.9761 73.7741 55.2331Z" fill="#F7A491"/>
<path d="M99.2188 116.109C99.2188 116.109 108.03 147.954 109.545 155.065C111.06 162.176 120.923 186.662 121.356 187.621C121.758 188.548 130.476 197.453 129.301 199.246C128.652 200.235 126.735 201.41 125.808 201.286C124.88 201.132 124.355 201.905 123.118 202.307C121.881 202.708 119.624 202.43 118.666 199.122C117.707 195.814 117.275 195.01 114.152 190.218C111.029 185.395 97.9512 169.72 95.0759 158.28C92.2006 146.841 85.7698 121.612 85.7698 121.612L99.2188 116.109Z" fill="#F79C8D"/>
<path d="M102.619 125.91C102.619 125.91 101.815 99.7232 98.2598 92.3649C94.7043 85.0065 85.862 80.8018 82.5229 87.2326C79.0911 93.8798 85.0581 126.188 85.0581 126.188L102.619 125.91Z" fill="#FAE0B2"/>
<path d="M-26.8615 146.687C-26.8615 146.687 -32.643 144.585 -36.3531 150.428C-40.0941 156.271 -38.0535 155.715 -39.8777 158.652C-41.7018 161.558 -46.4321 160.971 -46.4321 165.516C-46.4321 170.061 -44.3298 170.741 -44.3298 170.741C-44.3298 170.741 -46.2466 174.265 -44.1133 177.883C-42.011 181.5 -36.7241 184.623 -32.3029 184.128C-32.3029 184.128 -25.6866 187.776 -19.0394 186.045C-12.3922 184.313 -14.711 184.313 -11.9903 184.313C-9.26955 184.313 -1.91124 180.572 -3.11701 175.162C-3.11701 175.162 1.366 169.844 -2.99333 165.485C-7.35267 161.125 -8.15653 156.735 -10.6917 150.892C-13.196 145.048 -23.8316 145.296 -26.8615 146.687Z" fill="#184655"/>
</g>
</svg>
